# xmcd
#
# Track frame offsets:
#	150
#	17761
#	34447
#	49262
#	78103
#	94251
#	115161
#	132470
#	151002
#	168756
#	185438
#	199673
#
# Disc length: 2909 seconds
#
# Revision: 0
# Processed by: cddbd v1.5.1PL0 Copyright (c) Steve Scherf et al.
# Submitted via: dBpowerAMP V4.0
#
DISCID=940b5b0c
DTITLE=Chely Wright - The Metropolitan Hotel
DYEAR=1900
DGENRE=Country
TTITLE0=It's The Song
TTITLE1=Back Of The Bottom Drawer
TTITLE2=I Got Him Ready For You
TTITLE3=The River
TTITLE4=Just The Way We Did It
TTITLE5=The Bumper Of My S.U.V. suv
TTITLE6=Your Shirt
TTITLE7=Between A Mother And A Child
TTITLE8=Southside Of Lonesome
TTITLE9=Wheels
TTITLE10=C'est La Vie  (You Never Can Tell)
TTITLE11=What If I Can't Say No Again
EXTD=Wispur's Rip
EXTT0=
EXTT1=
EXTT2=
EXTT3=
EXTT4=
EXTT5=
EXTT6=
EXTT7=
EXTT8=
EXTT9=
EXTT10=
EXTT11=
PLAYORDER=
